<svg width="300" height="300" viewBox="0 0 300 300" fill="none" xmlns="http://www.w3.org/2000/svg">
<path d="M29 285V15H167.004C188.591 15 207.094 18.6086 222.514 25.8259C237.933 33.0432 249.626 43.2247 257.593 56.3705C265.817 69.2585 269.929 84.5952 269.929 102.381C269.929 120.939 265.56 137.307 256.822 151.484C248.341 165.403 236.391 176.358 220.972 184.348C220.15 184.781 219.323 185.203 218.489 185.612L283 285H189.341L133.771 196.334H133.766V138.338H157.367C163.792 138.338 169.188 137.178 173.557 134.858C178.183 132.539 181.781 129.188 184.351 124.806C186.921 120.424 188.206 115.011 188.206 108.567C188.206 102.638 186.921 97.6121 184.351 93.4879C181.781 89.3638 178.055 86.2707 173.172 84.2086C168.546 81.8887 162.764 80.7288 155.825 80.7288H106.868V136.608H106.847V202.488H106.868V285H29Z" fill="#06B6D4"/>
</svg>
