<svg xmlns="http://www.w3.org/2000/svg" viewBox="0 0 560 560"><defs><style>.a{fill:#d30909;opacity:0;}.b{fill:#cffafe;}.c{fill:#67e8f9;}.d{fill:#06b6d4;}</style></defs><rect class="a" width="560" height="560"/><path class="b" d="M238.87,502.59q-6.08,9-15.39,11.21-8.72,2.1-17.73-2.6T191.6,493.36L120.88,198.74q-10.25,1.17-17.71-3.92a23.13,23.13,0,0,1-9.69-14.33,29.35,29.35,0,0,1,0-12.4,31.15,31.15,0,0,1,6.36-13.28,260.65,260.65,0,0,1,53.24-41.21,231.12,231.12,0,0,1,64.12-26.16,190.44,190.44,0,0,1,54.33-5.2,140.57,140.57,0,0,1,52.12,13Q353.24,109,370.1,129.78a114.43,114.43,0,0,1,22.75,45.49,123.05,123.05,0,0,1,2.8,40.49A149.33,149.33,0,0,1,386,256.29,163.95,163.95,0,0,1,333.66,326q30,20.89,64.47,44t64.35,43.36a30.92,30.92,0,0,1,11.44,17.5q2.52,10.5-2.76,18.63A24.22,24.22,0,0,1,455.92,460a32.65,32.65,0,0,1-11.41.46,27.81,27.81,0,0,1-12.73-5.11q-4.78-3.4-16.54-11.38t-26.65-17.78q-14.86-9.81-31.39-21.2t-31.1-21.27q-14.53-9.89-26.24-17.54c-7.79-5.11-13.3-8.79-16.47-11.09a323.26,323.26,0,0,1-32.54,12.4q-16.53,5.26-33.15,9.9l24.46,101.92Q245,493.64,238.87,502.59Zm61-361.18a98.9,98.9,0,0,0-36.21-7,157.94,157.94,0,0,0-37.43,4.41,166.37,166.37,0,0,0-31,10.71,203.69,203.69,0,0,0-28.41,16l38.7,161.21q23.32-6.9,46.38-15.06a193.45,193.45,0,0,0,44-22.3,99.49,99.49,0,0,0,22.4-20.42,125.29,125.29,0,0,0,16.43-26.14,101.88,101.88,0,0,0,8.59-28.52,72.78,72.78,0,0,0-1-27.53,62.91,62.91,0,0,0-13.52-26.15Q318.71,148.65,299.87,141.41Z"/><path class="c" d="M243.1,486.75q-6.07,9-15.4,11.22-8.72,2.08-17.73-2.6t-14.15-17.85L125.11,182.91q-10.26,1.16-17.72-3.92a23.2,23.2,0,0,1-9.69-14.33,29.4,29.4,0,0,1,0-12.41A31.18,31.18,0,0,1,104,139a260.34,260.34,0,0,1,53.24-41.22A231.18,231.18,0,0,1,221.41,71.6a190.44,190.44,0,0,1,54.33-5.2,140.49,140.49,0,0,1,52.12,13q29.59,13.8,46.46,34.57a114.17,114.17,0,0,1,22.75,45.49,122.78,122.78,0,0,1,2.8,40.49,149.4,149.4,0,0,1-9.66,40.54,164,164,0,0,1-52.33,69.71q30,20.91,64.47,44t64.36,43.35A31,31,0,0,1,478.15,415c1.68,7,.75,13.2-2.77,18.64a24.22,24.22,0,0,1-15.24,10.5,32.6,32.6,0,0,1-11.4.45A27.69,27.69,0,0,1,436,439.47c-3.19-2.26-8.69-6.07-16.54-11.37s-16.73-11.23-26.65-17.78-20.36-13.62-31.39-21.2-21.4-14.68-31.09-21.28-18.46-12.45-26.25-17.54-13.3-8.79-16.47-11.09a316.73,316.73,0,0,1-32.54,12.4q-16.53,5.26-33.14,9.91l24.46,101.91Q249.18,477.81,243.1,486.75Zm61-361.18a98.6,98.6,0,0,0-36.21-7,157.26,157.26,0,0,0-37.42,4.4,167.2,167.2,0,0,0-31,10.71,203.59,203.59,0,0,0-28.4,16l38.69,161.21q23.32-6.9,46.38-15.06a192.51,192.51,0,0,0,44-22.3,99.4,99.4,0,0,0,22.39-20.41A125.1,125.1,0,0,0,339,227a101.49,101.49,0,0,0,8.59-28.51,72.77,72.77,0,0,0-1-27.53A63,63,0,0,0,333,144.75Q322.92,132.83,304.09,125.57Z"/><path class="d" d="M247.33,466.14q-6.08,9-15.4,11.21-8.72,2.1-17.73-2.6T200.05,456.9L129.34,162.29c-6.84.78-12.74-.54-17.71-3.92A23.13,23.13,0,0,1,101.94,144a29.24,29.24,0,0,1,0-12.41,31.15,31.15,0,0,1,6.35-13.27,260.65,260.65,0,0,1,53.24-41.21A231.18,231.18,0,0,1,225.64,51,190.44,190.44,0,0,1,280,45.79a140.62,140.62,0,0,1,52.12,13q29.6,13.81,46.46,34.57a114.24,114.24,0,0,1,22.75,45.49,122.86,122.86,0,0,1,2.8,40.5,149.33,149.33,0,0,1-9.66,40.53,163.95,163.95,0,0,1-52.33,69.72q30,20.9,64.47,44t64.36,43.36a31,31,0,0,1,11.44,17.5q2.52,10.5-2.77,18.63a24.22,24.22,0,0,1-15.24,10.5A32.58,32.58,0,0,1,453,424a27.8,27.8,0,0,1-12.74-5.11q-4.78-3.41-16.54-11.38T397.05,389.7q-14.88-9.81-31.4-21.2t-31.09-21.27q-14.54-9.9-26.25-17.55c-7.79-5.1-13.3-8.78-16.46-11.08A322.51,322.51,0,0,1,259.3,331q-16.53,5.26-33.14,9.9l24.46,101.92Q253.41,457.19,247.33,466.14Zm61-361.18a98.81,98.81,0,0,0-36.2-7,157.87,157.87,0,0,0-37.43,4.41,166.47,166.47,0,0,0-31,10.71A203.52,203.52,0,0,0,175.31,129L214,290.26q23.33-6.9,46.38-15.06a193.32,193.32,0,0,0,44-22.3,99.45,99.45,0,0,0,22.39-20.42,125.29,125.29,0,0,0,16.43-26.14,101.22,101.22,0,0,0,8.59-28.52,72.77,72.77,0,0,0-1-27.53,62.94,62.94,0,0,0-13.51-26.15Q327.15,112.2,308.32,105Z"/></svg>